<?xml version="1.0" encoding="UTF-8" standalone="no"?>
<!-- Created with Inkscape (http://www.inkscape.org/) -->

<svg
   xmlns:dc="http://purl.org/dc/elements/1.1/"
   xmlns:cc="http://creativecommons.org/ns#"
   xmlns:rdf="http://www.w3.org/1999/02/22-rdf-syntax-ns#"
   xmlns:svg="http://www.w3.org/2000/svg"
   xmlns="http://www.w3.org/2000/svg"
   xmlns:sodipodi="http://sodipodi.sourceforge.net/DTD/sodipodi-0.dtd"
   xmlns:inkscape="http://www.inkscape.org/namespaces/inkscape"
   viewBox="0 0 208.43404 130.03511"
   id="svg2"
   version="1.1"
   inkscape:version="0.91 r13725"
   sodipodi:docname="logo.svg">
  <defs
     id="defs4">
    <inkscape:perspective
       id="perspective2837"
       inkscape:persp3d-origin="200 : 4.6666665 : 1"
       inkscape:vp_z="400.00001 : 6.999999 : 1"
       inkscape:vp_y="0 : 999.99999 : 0"
       inkscape:vp_x="0 : 6.9999993 : 1"
       sodipodi:type="inkscape:persp3d" />
  </defs>
  <sodipodi:namedview
     id="base"
     pagecolor="#ffffff"
     bordercolor="#666666"
     borderopacity="1.0"
     inkscape:pageopacity="0.0"
     inkscape:pageshadow="2"
     inkscape:zoom="1.979899"
     inkscape:cx="111.43453"
     inkscape:cy="83.827483"
     inkscape:document-units="px"
     inkscape:current-layer="layer1"
     showgrid="false"
     inkscape:window-width="1920"
     inkscape:window-height="1017"
     inkscape:window-x="1192"
     inkscape:window-y="540"
     inkscape:window-maximized="1"
     fit-margin-top="0"
     fit-margin-left="0"
     fit-margin-right="0"
     fit-margin-bottom="0" />
  <metadata
     id="metadata7">
    <rdf:RDF>
      <cc:Work
         rdf:about="">
        <dc:format>image/svg+xml</dc:format>
        <dc:type
           rdf:resource="http://purl.org/dc/dcmitype/StillImage" />
        <dc:title />
      </cc:Work>
    </rdf:RDF>
  </metadata>
  <g
     inkscape:label="Layer 1"
     inkscape:groupmode="layer"
     id="layer1"
     transform="translate(-0.053547,-694.53336)">
    <flowRoot
       xml:space="preserve"
       id="flowRoot3367"
       style="font-style:normal;font-weight:normal;font-size:40px;line-height:125%;font-family:sans-serif;letter-spacing:0px;word-spacing:0px;fill:#000000;fill-opacity:1;stroke:none;stroke-width:1px;stroke-linecap:butt;stroke-linejoin:miter;stroke-opacity:1"
       transform="matrix(1.1961921,0,0,1.1961921,-0.01050551,-136.95713)"><flowRegion
         id="flowRegion3369"><rect
           id="rect3371"
           width="8.5714283"
           height="52.142857"
           x="124.28571"
           y="195.93364" /></flowRegion><flowPara
         id="flowPara3373" /></flowRoot>    <g
       style="font-style:normal;font-weight:normal;font-size:47.84768295px;line-height:125%;font-family:sans-serif;letter-spacing:0px;word-spacing:0px;fill:#000000;fill-opacity:1;stroke:none;stroke-width:1px;stroke-linecap:butt;stroke-linejoin:miter;stroke-opacity:1"
       id="text4756">
      <path
         d="m 28.228742,771.51283 q -6.308044,0 -11.512181,-2.05012 -5.151569,-2.10268 -8.8838285,-6.46574 -3.6796924,-4.41564 -5.7298068,-11.24935 -1.99754734,-6.83371 -1.99754734,-16.34835 0,-11.72245 3.57455834,-20.13317 3.5745584,-8.41073 10.1980053,-12.77379 6.676013,-4.41563 15.454708,-4.41563 9.356932,0 15.717543,4.15279 6.413179,4.10023 9.619768,12.14299 3.259156,7.99019 3.259156,19.50237 0,12.30068 -3.679693,20.76398 -3.679692,8.46329 -10.408273,12.66865 -6.676013,4.20537 -15.612409,4.20537 z M 10.934188,733.9274 q 0,16.13808 4.678466,24.5488 4.731033,8.41073 13.772563,8.41073 5.729807,0 9.724901,-3.62713 3.995095,-3.67969 5.992642,-10.72367 1.997548,-7.04399 1.997548,-16.45349 0,-11.45961 -2.365517,-18.9767 -2.312949,-7.56965 -6.360611,-10.98651 -4.047662,-3.41685 -9.409499,-3.41685 -4.731034,0 -8.147891,2.20781 -3.36429,2.20782 -5.624673,6.30805 -2.207815,4.04766 -3.259156,9.83003 -0.998773,5.78238 -0.998773,12.87893 z"
         style="font-style:normal;font-variant:normal;font-weight:normal;font-stretch:normal;font-size:107.6572876px;font-family:Cambria;-inkscape-font-specification:Cambria;fill:#053333;fill-opacity:1"
         id="path4172" />
      <path
         d="m 86.630718,765.83559 13.772562,0 q 2.26038,0 3.78483,-0.26284 1.52444,-0.26283 2.57578,-0.7885 1.10391,-0.57824 1.94498,-1.52445 0.89364,-0.99877 1.68215,-2.57578 0.7885,-1.57701 1.47187,-3.94253 0.73594,-2.41808 1.78728,-7.20169 l 5.30927,0 -1.05134,21.13195 -47.257761,0 0,-2.57578 q 3.259157,-0.84107 4.363064,-1.83985 1.103908,-1.05134 1.41931,-2.94375 0.367969,-1.89242 0.367969,-5.78238 l 0,-45.47048 q 0,-3.62713 -0.262835,-5.2567 -0.262835,-1.68215 -0.893639,-2.57579 -0.578238,-0.94621 -1.577011,-1.47188 -0.998774,-0.57823 -3.416858,-1.26161 l 0,-2.57578 22.130722,0 0,2.57578 q -2.312949,0.63081 -3.311723,1.15648 -0.946207,0.4731 -1.577011,1.31418 -0.630805,0.84107 -0.946207,2.57578 -0.315402,1.73471 -0.315402,5.51954 l 0,53.77608 z"
         style="font-style:normal;font-variant:normal;font-weight:normal;font-stretch:normal;font-size:107.6572876px;font-family:Cambria;-inkscape-font-specification:Cambria;fill:#053333;fill-opacity:1"
         id="path4174" />
      <path
         d="m 144.45446,765.83559 13.77256,0 q 2.26038,0 3.78483,-0.26284 1.52444,-0.26283 2.57578,-0.7885 1.10391,-0.57824 1.94498,-1.52445 0.89364,-0.99877 1.68215,-2.57578 0.7885,-1.57701 1.47187,-3.94253 0.73594,-2.41808 1.78728,-7.20169 l 5.30927,0 -1.05134,21.13195 -47.25776,0 0,-2.57578 q 3.25915,-0.84107 4.36306,-1.83985 1.10391,-1.05134 1.41931,-2.94375 0.36797,-1.89242 0.36797,-5.78238 l 0,-45.47048 q 0,-3.62713 -0.26283,-5.2567 -0.26284,-1.68215 -0.89364,-2.57579 -0.57824,-0.94621 -1.57702,-1.47188 -0.99877,-0.57823 -3.41685,-1.26161 l 0,-2.57578 22.13072,0 0,2.57578 q -2.31295,0.63081 -3.31172,1.15648 -0.94621,0.4731 -1.57702,1.31418 -0.6308,0.84107 -0.9462,2.57578 -0.3154,1.73471 -0.3154,5.51954 l 0,53.77608 z"
         style="font-style:normal;font-variant:normal;font-weight:normal;font-stretch:normal;font-size:107.6572876px;font-family:Cambria;-inkscape-font-specification:Cambria;fill:#053333;fill-opacity:1"
         id="path4176" />
      <path
         d="m 202.33077,757.52999 q 0,3.522 0.21027,5.15157 0.26283,1.62958 0.7885,2.57579 0.57824,0.9462 1.62958,1.57701 1.10391,0.6308 3.52199,1.26161 l 0,2.57578 -22.18329,0 0,-2.57578 q 3.25916,-0.84107 4.36307,-1.83985 1.1039,-1.05134 1.41931,-2.94375 0.36797,-1.89242 0.36797,-5.78238 l 0,-45.47048 q 0,-3.62713 -0.26284,-5.2567 -0.26283,-1.68215 -0.89364,-2.57579 -0.57824,-0.94621 -1.57701,-1.47188 -0.99877,-0.57823 -3.41686,-1.26161 l 0,-2.57578 22.18329,0 0,2.57578 q -2.31295,0.57824 -3.36429,1.15648 -0.99877,0.57824 -1.62958,1.47188 -0.57823,0.84107 -0.89364,2.57578 -0.26283,1.73471 -0.26283,5.36184 l 0,45.47048 z"
         style="font-style:normal;font-variant:normal;font-weight:normal;font-stretch:normal;font-size:107.6572876px;font-family:Cambria;-inkscape-font-specification:Cambria;fill:#053333;fill-opacity:1"
         id="path4178" />
    </g>
    <g
       style="font-style:normal;font-weight:normal;font-size:20.83246994px;line-height:125%;font-family:sans-serif;letter-spacing:0px;word-spacing:0px;fill:#000000;fill-opacity:1;stroke:none;stroke-width:1px;stroke-linecap:butt;stroke-linejoin:miter;stroke-opacity:1"
       id="text4756-2">
      <path
         d="m 2.3422704,806.00091 q 0.4577447,2.01407 1.2359107,3.18132 0.7781659,1.16725 2.0140765,1.73943 1.2359106,0.54929 3.1813255,0.54929 2.6778059,0 4.0968149,-1.39612 1.441896,-1.39612 1.441896,-4.07392 0,-1.71655 -0.595068,-2.8838 -0.595069,-1.16724 -1.945415,-2.19717 -1.350347,-1.02993 -4.1197023,-2.40316 -2.6778064,-1.32746 -4.2341383,-2.58626 -1.5563319,-1.28168 -2.3344978,-2.76935 -0.75527871,-1.48767 -0.75527871,-3.24999 0,-2.56337 1.19013611,-4.44012 1.2130234,-1.89964 3.524634,-2.92957 2.3344979,-1.02992 5.332725,-1.02992 1.73943,0 3.387311,0.18309 1.670768,0.1831 4.165477,0.82394 l 0,6.17956 -2.265837,0 q -0.526406,-2.01408 -1.327459,-3.13555 -0.801053,-1.12148 -1.876753,-1.55634 -1.0757,-0.45774 -2.7922428,-0.45774 -1.4876702,0 -2.6778063,0.54929 -1.1672489,0.5493 -1.8538659,1.67077 -0.6866171,1.09859 -0.6866171,2.63203 0,1.625 0.5721809,2.74647 0.5950681,1.12148 1.8309787,2.08274 1.2359106,0.96126 3.6619575,2.1514 2.929566,1.46478 4.531672,2.72358 1.624994,1.2588 2.517596,2.88379 0.915489,1.60211 0.915489,3.75351 0,2.40316 -0.755279,4.07393 -0.755278,1.64788 -2.105625,2.70069 -1.32746,1.02992 -3.204213,1.51056 -1.853866,0.45774 -4.0739273,0.45774 -3.5932957,0 -8.28517862,-1.21302 l 0,-6.2711 2.28872332,0 z"
         style="font-style:normal;font-variant:normal;font-weight:normal;font-stretch:normal;font-size:46.8730545px;font-family:Cambria;-inkscape-font-specification:Cambria;fill:#053333;fill-opacity:1"
         id="path4153" />
      <path
         d="m 38.595649,813.11884 0,-1.12148 q 1.144361,-0.22887 1.693655,-0.50352 0.572181,-0.27464 0.846828,-0.75528 0.274646,-0.50352 0.274646,-1.32746 0,-0.77816 -0.183097,-1.67076 -0.183098,-0.91549 -0.526407,-2.03697 l -0.846828,-2.95245 -10.66545,0 -0.778166,2.24295 q -0.595068,1.69365 -0.778166,2.56337 -0.183098,0.86971 -0.183098,1.57922 0,1.37323 0.686617,2.01407 0.709504,0.64085 2.1514,0.84683 l 0,1.12148 -9.772849,0 0,-1.12148 q 1.281685,-0.20598 2.220062,-1.48767 0.961264,-1.28168 1.853866,-3.66196 l 9.543976,-25.33616 3.616183,0 7.781659,25.51926 q 0.549294,1.78521 0.961264,2.72358 0.434858,0.93838 1.029926,1.46479 0.595068,0.5264 1.624993,0.77816 l 0,1.12148 -10.551014,0 z m -8.788698,-12.35911 9.566864,0 -4.348575,-14.76227 -5.218289,14.76227 z"
         style="font-style:normal;font-variant:normal;font-weight:normal;font-stretch:normal;font-size:46.8730545px;font-family:Cambria;-inkscape-font-specification:Cambria;fill:#053333;fill-opacity:1"
         id="path4155" />
      <path
         d="m 67.799758,813.11884 0,-1.12148 q 1.144362,-0.22887 1.693655,-0.50352 0.572181,-0.27464 0.846828,-0.75528 0.274647,-0.50352 0.274647,-1.32746 0,-0.77816 -0.183098,-1.67076 -0.183098,-0.91549 -0.526407,-2.03697 l -0.846827,-2.95245 -10.665451,0 -0.778166,2.24295 q -0.595068,1.69365 -0.778166,2.56337 -0.183098,0.86971 -0.183098,1.57922 0,1.37323 0.686617,2.01407 0.709504,0.64085 2.1514,0.84683 l 0,1.12148 -9.772849,0 0,-1.12148 q 1.281685,-0.20598 2.220062,-1.48767 0.961264,-1.28168 1.853866,-3.66196 l 9.543976,-25.33616 3.616183,0 7.78166,25.51926 q 0.549293,1.78521 0.961263,2.72358 0.434858,0.93838 1.029926,1.46479 0.595068,0.5264 1.624994,0.77816 l 0,1.12148 -10.551015,0 z m -8.788698,-12.35911 9.566864,0 -4.348575,-14.76227 -5.218289,14.76227 z"
         style="font-style:normal;font-variant:normal;font-weight:normal;font-stretch:normal;font-size:46.8730545px;font-family:Cambria;-inkscape-font-specification:Cambria;fill:#053333;fill-opacity:1"
         id="path4157" />
      <path
         d="m 88.535594,799.54671 0,7.78166 q 0,1.64788 0.114437,2.40315 0.137323,0.7324 0.389083,1.12148 0.251759,0.3662 0.686617,0.61795 0.434857,0.22888 1.48767,0.52641 l 0,1.12148 -9.658413,0 0,-1.12148 q 1.419009,-0.36619 1.899641,-0.80105 0.480631,-0.45775 0.617955,-1.28169 0.16021,-0.82394 0.16021,-2.51759 l 0,-19.79746 q 0,-1.57922 -0.114436,-2.28872 -0.114436,-0.73239 -0.389083,-1.12148 -0.251759,-0.41197 -0.686617,-0.64084 -0.434857,-0.25176 -1.48767,-0.54929 l 0,-1.12148 11.329181,0 q 5.355612,0 8.010531,1.94542 2.65492,1.94541 2.65492,6.04223 0,3.13555 -1.73943,5.33272 -1.71654,2.19718 -5.172515,3.43309 l 0,0.18309 q 1.396121,0.57219 2.380272,1.64789 1.007043,1.05281 2.220063,3.29576 l 2.05985,3.7535 q 0.8926,1.64788 1.53344,2.5176 0.64085,0.86971 1.30458,1.32746 0.66373,0.45774 1.76231,0.64084 l 0,1.12148 -6.33976,0 q -0.86971,-1.21303 -1.64788,-2.60915 -0.778166,-1.39612 -1.533445,-2.83802 l -2.014077,-3.82216 q -0.915489,-1.73943 -1.510557,-2.56337 -0.572181,-0.82394 -1.0757,-1.14437 -0.480632,-0.3433 -1.052813,-0.45774 -0.549293,-0.13732 -1.670768,-0.13732 l -2.517596,0 z m 0,-15.56332 0,13.59501 2.586258,0 q 1.991189,0 3.2271,-0.27464 1.23591,-0.29754 2.288723,-1.09859 1.052813,-0.80105 1.670768,-2.22006 0.640843,-1.4419 0.640843,-3.52464 0,-2.17428 -0.755279,-3.61618 -0.732391,-1.44189 -2.242949,-2.19717 -1.510557,-0.75528 -4.073928,-0.75528 -2.059851,0 -3.341536,0.0915 z"
         style="font-style:normal;font-variant:normal;font-weight:normal;font-stretch:normal;font-size:46.8730545px;font-family:Cambria;-inkscape-font-specification:Cambria;fill:#053333;fill-opacity:1"
         id="path4159" />
      <path
         d="m 117.64815,807.39703 q 0,1.53344 0.0915,2.24295 0.11444,0.7095 0.34331,1.12147 0.25176,0.41197 0.7095,0.68662 0.48063,0.27464 1.53345,0.54929 l 0,1.12148 -9.65842,0 0,-1.12148 q 1.41901,-0.36619 1.89964,-0.80105 0.48064,-0.45775 0.61796,-1.28169 0.16021,-0.82394 0.16021,-2.51759 l 0,-19.79746 q 0,-1.57922 -0.11444,-2.28872 -0.11443,-0.73239 -0.38908,-1.12148 -0.25176,-0.41197 -0.68662,-0.64084 -0.43485,-0.25176 -1.48767,-0.54929 l 0,-1.12148 9.65842,0 0,1.12148 q -1.00704,0.25176 -1.46479,0.50352 -0.43485,0.25175 -0.7095,0.64084 -0.25176,0.36619 -0.38908,1.12147 -0.11444,0.75528 -0.11444,2.3345 l 0,19.79746 z"
         style="font-style:normal;font-variant:normal;font-weight:normal;font-stretch:normal;font-size:46.8730545px;font-family:Cambria;-inkscape-font-specification:Cambria;fill:#053333;fill-opacity:1"
         id="path4161" />
      <path
         d="m 132.7995,795.99918 0.68661,0 q 0.86972,0 1.57922,-0.27464 0.73239,-0.27465 1.625,-1.02993 0.8926,-0.75528 2.72358,-2.81513 2.19717,-2.44893 2.99823,-3.54752 1.00703,-1.30457 1.35034,-2.19717 0.27465,-0.66373 0.27465,-1.28169 0,-0.91549 -0.52641,-1.32746 -0.5264,-0.43486 -1.44189,-0.5264 l 0,-1.12148 9.97883,0 0,1.12148 q -0.73239,0.16021 -1.4419,0.57218 -0.7095,0.38908 -1.46478,1.09858 -0.73239,0.68662 -2.17429,2.28873 l -7.69011,8.65137 8.33096,12.10735 q 1.32746,1.92253 2.08274,2.70069 0.75527,0.75528 1.44189,1.12148 0.68662,0.3433 1.46478,0.45774 l 0,1.12148 -10.09327,0 0,-1.12148 q 0.84683,-0.0687 1.23591,-0.32042 0.38909,-0.25176 0.38909,-0.75528 0,-0.41197 -0.27465,-0.98415 -0.25176,-0.59507 -0.82394,-1.41901 l -5.33272,-7.94187 q -0.93838,-1.41901 -1.37324,-1.87675 -0.43486,-0.45775 -0.93838,-0.66373 -0.50351,-0.22887 -1.35034,-0.22887 l -1.21303,0 0,9.58975 q 0,1.53344 0.0915,2.24295 0.11444,0.7095 0.34331,1.12147 0.25176,0.41197 0.70951,0.68662 0.48063,0.27464 1.53344,0.54929 l 0,1.12148 -9.63552,0 0,-1.12148 q 1.419,-0.36619 1.89964,-0.80105 0.48063,-0.45775 0.61795,-1.28169 0.16021,-0.82394 0.16021,-2.51759 l 0,-19.79746 q 0,-1.57922 -0.11443,-2.28872 -0.11444,-0.73239 -0.38909,-1.12148 -0.25176,-0.41197 -0.68661,-0.64084 -0.43486,-0.25176 -1.48767,-0.54929 l 0,-1.12148 9.63552,0 0,1.12148 q -1.00704,0.25176 -1.46478,0.50352 -0.43486,0.25175 -0.70951,0.64084 -0.25176,0.36619 -0.38908,1.12147 -0.11444,0.75528 -0.11444,2.3345 l -0.0229,8.39961 z"
         style="font-style:normal;font-variant:normal;font-weight:normal;font-stretch:normal;font-size:46.8730545px;font-family:Cambria;-inkscape-font-specification:Cambria;fill:#053333;fill-opacity:1"
         id="path4163" />
      <path
         d="m 162.32403,807.39703 q 0,1.53344 0.0916,2.24295 0.11444,0.7095 0.34331,1.12147 0.25176,0.41197 0.7095,0.68662 0.48063,0.27464 1.53345,0.54929 l 0,1.12148 -9.65841,0 0,-1.12148 q 1.419,-0.36619 1.89964,-0.80105 0.48063,-0.45775 0.61795,-1.28169 0.16021,-0.82394 0.16021,-2.51759 l 0,-19.79746 q 0,-1.57922 -0.11443,-2.28872 -0.11444,-0.73239 -0.38909,-1.12148 -0.25176,-0.41197 -0.68661,-0.64084 -0.43486,-0.25176 -1.48767,-0.54929 l 0,-1.12148 9.65841,0 0,1.12148 q -1.00704,0.25176 -1.46479,0.50352 -0.43485,0.25175 -0.7095,0.64084 -0.25176,0.36619 -0.38908,1.12147 -0.11444,0.75528 -0.11444,2.3345 l 0,19.79746 z"
         style="font-style:normal;font-variant:normal;font-weight:normal;font-stretch:normal;font-size:46.8730545px;font-family:Cambria;-inkscape-font-specification:Cambria;fill:#053333;fill-opacity:1"
         id="path4165" />
      <path
         d="m 178.61975,781.87776 0,1.12148 q -1.05282,0.18309 -1.60211,0.45774 -0.54929,0.27465 -0.82394,0.77817 -0.27465,0.50352 -0.27465,1.35034 0,0.77817 0.1831,1.69366 0.1831,0.8926 0.52641,2.01408 l 5.35561,18.67598 6.56864,-18.81331 q 0.13732,-0.43486 0.27464,-0.91549 0.13733,-0.48063 0.22888,-0.93837 0.11443,-0.45775 0.13732,-0.80106 0.0458,-0.34331 0.0458,-0.64084 0,-1.37323 -0.64084,-1.99119 -0.61795,-0.64084 -2.12851,-0.86971 l 0,-1.12148 9.61264,0 0,1.12148 q -0.93838,0.22887 -1.51056,0.66373 -0.57218,0.43485 -1.14436,1.39612 -0.5493,0.96126 -1.35035,3.06689 l -9.4982,25.35905 -2.99823,0 -7.713,-25.51926 q -0.61795,-2.08274 -1.0757,-2.95246 -0.45774,-0.8926 -1.00704,-1.32746 -0.54929,-0.45774 -1.51055,-0.68661 l 0,-1.12148 10.34503,0 z"
         style="font-style:normal;font-variant:normal;font-weight:normal;font-stretch:normal;font-size:46.8730545px;font-family:Cambria;-inkscape-font-specification:Cambria;fill:#053333;fill-opacity:1"
         id="path4167" />
      <path
         d="m 205.80978,807.39703 q 0,1.53344 0.0916,2.24295 0.11443,0.7095 0.34331,1.12147 0.25176,0.41197 0.7095,0.68662 0.48063,0.27464 1.53345,0.54929 l 0,1.12148 -9.65842,0 0,-1.12148 q 1.41901,-0.36619 1.89964,-0.80105 0.48064,-0.45775 0.61796,-1.28169 0.16021,-0.82394 0.16021,-2.51759 l 0,-19.79746 q 0,-1.57922 -0.11444,-2.28872 -0.11443,-0.73239 -0.38908,-1.12148 -0.25176,-0.41197 -0.68662,-0.64084 -0.43485,-0.25176 -1.48767,-0.54929 l 0,-1.12148 9.65842,0 0,1.12148 q -1.00704,0.25176 -1.46479,0.50352 -0.43485,0.25175 -0.7095,0.64084 -0.25176,0.36619 -0.38908,1.12147 -0.11444,0.75528 -0.11444,2.3345 l 0,19.79746 z"
         style="font-style:normal;font-variant:normal;font-weight:normal;font-stretch:normal;font-size:46.8730545px;font-family:Cambria;-inkscape-font-specification:Cambria;fill:#053333;fill-opacity:1"
         id="path4169" />
    </g>
    <g
       id="layer1-1"
       transform="translate(-88.696455,-218.02003)">
      <path
         style="fill:none;fill-rule:evenodd;stroke:#053333;stroke-width:2;stroke-linecap:butt;stroke-linejoin:miter;stroke-miterlimit:4;stroke-dasharray:none;stroke-opacity:1"
         d="m 88.750002,1041.5885 c 208.429378,0 208.429378,0 208.429378,0"
         id="path4863"
         inkscape:connector-curvature="0" />
    </g>
  </g>
</svg>
