<?xml version="1.0" standalone="no"?>
<!DOCTYPE svg PUBLIC "-//W3C//DTD SVG 20010904//EN"
 "http://www.w3.org/TR/2001/REC-SVG-20010904/DTD/svg10.dtd">
<svg version="1.0" xmlns="http://www.w3.org/2000/svg"
 width="700.000000pt" height="700.000000pt" viewBox="0 0 700.000000 700.000000"
 preserveAspectRatio="xMidYMid meet">
<metadata>
Created by potrace 1.11, written by Peter Selinger 2001-2013
</metadata>
<g transform="translate(0.000000,700.000000) scale(0.100000,-0.100000)"
fill="#000000" stroke="none">
<path d="M3356 5994 c-753 -102 -1215 -540 -1254 -1189 -22 -347 57 -594 268
-848 178 -213 397 -367 875 -615 524 -272 717 -403 860 -584 132 -167 174
-297 182 -558 4 -153 2 -188 -17 -279 -11 -57 -32 -131 -46 -164 -119 -283
-368 -436 -734 -454 -294 -14 -548 48 -709 171 -165 128 -267 307 -356 629
l-16 57 -180 0 -179 0 2 -492 3 -493 160 -37 c284 -67 592 -118 834 -139 173
-15 592 -6 721 15 292 47 483 115 666 238 144 96 292 265 373 426 133 264 176
705 97 1014 -46 180 -148 360 -295 521 -105 115 -205 198 -376 311 -173 115
-240 153 -552 314 -383 198 -537 298 -678 437 -151 149 -224 294 -252 500 -32
236 7 434 119 601 156 233 431 339 814 313 278 -19 455 -106 594 -291 33 -44
80 -121 104 -172 42 -86 116 -293 116 -322 0 -11 35 -14 180 -14 l180 0 0 484
0 484 -112 27 c-269 63 -436 91 -648 110 -205 18 -608 18 -744 -1z"/>
</g>
</svg>
